<svg id="Layer_1" data-name="Layer 1" xmlns="http://www.w3.org/2000/svg" viewBox="0 0 220.12 89.82"><defs><style>.cls-1{fill:#0054a4;}.cls-2{fill:#fff;}.cls-3{fill:#5d0025;}</style></defs><path class="cls-1" d="M347.51,287.62c-5.64-1.74-16.81-2.16-24.94-.93s-10.14,3.63-4.49,5.37l.37.11c-3.88-1.58-1.78-3.79,5.12-5.1,7.4-1.41,17.51-1.27,22.59.33s3.19,4-4.2,5.42a54.77,54.77,0,0,1-7.1.85A66.52,66.52,0,0,0,343,293C351.14,291.77,353.16,289.37,347.51,287.62Z" transform="translate(-287.1 -261.32)"/><path class="cls-1" d="M333,265.36c-2.18,4.46-3,5.92-5.18,9.89-3.81,6.84-2.12,13.42,3.83,15.4,6.55,2.17,12.92-5.38,9.68-12.91-3-7-6.36-9.53-7.26-16.42" transform="translate(-287.1 -261.32)"/><path class="cls-2" d="M327.85,279.62c1.3,9,5.95,9.27,8.41,9.71-5.72,1.32-9.59-3.09-8.43-9.6" transform="translate(-287.1 -261.32)"/><path class="cls-3" d="M292.66,321.11c0-1.91,0-2.19,2.14-2.19a3.58,3.58,0,0,1,3.94,3.89,3.36,3.36,0,0,1-1.26,2.8,5.25,5.25,0,0,1-3.42.9c-.47,0-1.4.19-1.4-.49Zm-2.17,11.46c0,1.72.14,2.27-1.78,2.27-.25,0-.68,0-.68.33s.22.36.46.36c1,0,2.08-.11,3.13-.11s2,.11,3.07.11c.24,0,.46-.06.46-.36s-.46-.33-.71-.33c-1.89,0-1.78-.52-1.78-2.27v-4.22c0-.25,0-.9.14-1.1s.38-.14.6-.14c2.08,0,2.05.22,3,2.14l2.69,5.34c.22.42.38.94.93.94H303c.22,0,.5,0,.5-.3s-.5-.39-.72-.39c-1.2,0-1.61-1-2.11-2l-2.22-4.27c-.38-.72-.79-1.68-1.67-1.81,2.28-.3,4.33-1.76,4.33-4.25,0-2.88-2.57-4.17-5.18-4.17-1.56,0-3.1.11-4.68.11-.88,0-1.81-.11-2.69-.11-.3,0-.49.11-.49.42s.43.33.68.33c1.92,0,1.78.52,1.78,2.27Z" transform="translate(-287.1 -261.32)"/><path class="cls-3" d="M307.35,327.31c-.3,0-.93.08-.93-.36a3.55,3.55,0,0,1,.68-1.59,4.41,4.41,0,0,1,3.56-1.84,3.23,3.23,0,0,1,2.39.86,2.58,2.58,0,0,1,.71,1.61c0,.66-.41,1-1,1.1a17.58,17.58,0,0,1-3.18.22Zm8.27.65c.28,0,.33-.25.33-.46a4.49,4.49,0,0,0-4.9-4.47,7.32,7.32,0,0,0-4.94,1.84,5.56,5.56,0,0,0-2,4.58,6.41,6.41,0,0,0,10.58,4.76c.19-.16,1.07-.9,1.07-1.23a.22.22,0,0,0-.22-.22c-.36,0-1.37,1.78-4.06,1.78-3.31,0-5.31-2.66-5.31-5.73,0-.9.27-.85,1.12-.85Z" transform="translate(-287.1 -261.32)"/><path class="cls-3" d="M317.93,332.1c0-.22.05-.6.35-.6,1,0-.14,3.75,3.59,3.75,1.62,0,3.34-.93,3.34-2.68,0-1.59-1.31-2.19-2.62-2.63-1.71-.55-4.2-1.24-4.2-3.46a3.14,3.14,0,0,1,1.46-2.55,5.42,5.42,0,0,1,3.23-.9,9.63,9.63,0,0,1,2.82.47c.47.21.3.82.3,1.23,0,.16.19,1.34-.27,1.34-.69,0-.39-2.57-3.34-2.57-1.13,0-2.53.76-2.53,2,0,3.21,6.86,1.76,6.86,6.22,0,2.64-2.88,4-5.21,4a9.32,9.32,0,0,1-3.48-.82c-.44-.2-.39-.55-.39-1Z" transform="translate(-287.1 -261.32)"/><path class="cls-3" d="M335.71,335.23c-3.09,0-4.82-3.37-4.82-6.09s1.7-5.59,4.71-5.59c3.18,0,4.74,3.15,4.74,5.92C340.34,332.07,338.67,335.23,335.71,335.23Zm-.08.52a6.58,6.58,0,0,0,6.8-6.47,6.2,6.2,0,0,0-2.14-4.66,7.05,7.05,0,0,0-4.66-1.59,6.88,6.88,0,0,0-4.93,1.84,6.16,6.16,0,0,0-1.87,4.41A6.56,6.56,0,0,0,335.63,335.75Z" transform="translate(-287.1 -261.32)"/><path class="cls-3" d="M355.91,332.13c0,1.07-.22,1.92,1.1,1.81l.35,0c.17,0,.36,0,.36.22s-.41.3-.58.36a8.15,8.15,0,0,0-2.74,1.17s-.22.17-.3.17-.14-.08-.14-.22V335c0-.14.14-1.12-.21-1.12s-1.7,1.92-4.2,1.92a3.89,3.89,0,0,1-3.23-1.59c-.88-1.13-.82-2.52-.82-3.87v-4.16c0-1.15.27-2.2-1.24-2.2-.24,0-.74,0-.74-.38,0-.22.14-.16.36-.16H347c.58,0,.44.57.44,1v5.91a6.5,6.5,0,0,0,.49,3.07,3.17,3.17,0,0,0,2.74,1.26,3.73,3.73,0,0,0,2.93-1.23c.58-.63.47-1.26.47-2v-5.23c0-1.15.27-2.2-1.21-2.2-.24,0-.76,0-.76-.35s.16-.19.38-.19h3.18c.44,0,.3.38.3.68Z" transform="translate(-287.1 -261.32)"/><path class="cls-3" d="M361.17,327.47c0-.38,0-1.45-.27-1.76a1.2,1.2,0,0,0-.8-.21h-.35c-.17,0-.33-.06-.33-.22,0-.33.38-.39.63-.47a6.1,6.1,0,0,0,2.27-1.42c.14-.14.28-.36.5-.36s.24.25.24.44v1.34c0,.11-.05.58.14.58s1.34-2.19,3.23-2.19a1.42,1.42,0,0,1,1.57,1.31,1.07,1.07,0,0,1-1.15,1.1c-.94,0-1-1-1.76-1-.6,0-1.07.57-1.4,1a4.06,4.06,0,0,0-.63,2.74v4.33c0,1.18-.24,2.11,1.24,2.25.27,0,.76,0,.76.36s-.13.3-.32.3c-.88,0-1.76-.11-2.58-.11s-1.75.11-2.6.11c-.2,0-.39-.06-.39-.28,0-.41.47-.35.77-.38,1.48-.14,1.23-1.07,1.23-2.25Z" transform="translate(-287.1 -261.32)"/><path class="cls-3" d="M379.21,326.54c-.88,0-1.37-3-3.59-3a4.65,4.65,0,0,0-2.77,1.13,5.93,5.93,0,0,0-2,4.44c0,2.79,2.05,5.64,5.12,5.64a4.45,4.45,0,0,0,3.15-1.2c.08-.08.27-.33.41-.33a.21.21,0,0,1,.19.22c0,.27-.63.82-.82,1a6.24,6.24,0,0,1-10.11-4.76c0-3.71,3.45-6.61,7.13-6.61a6.58,6.58,0,0,1,3.36.9c.36.25.23.86.23,1.21S379.7,326.54,379.21,326.54Z" transform="translate(-287.1 -261.32)"/><path class="cls-3" d="M384.6,327.31c-.3,0-.93.08-.93-.36a3.57,3.57,0,0,1,.69-1.59,4.4,4.4,0,0,1,3.56-1.84,3.23,3.23,0,0,1,2.39.86A2.58,2.58,0,0,1,391,326c0,.66-.41,1-1,1.1a17.52,17.52,0,0,1-3.18.22Zm8.28.65c.28,0,.33-.25.33-.46a5,5,0,0,0-1-2.77,5,5,0,0,0-3.94-1.7,7.32,7.32,0,0,0-4.94,1.84,5.56,5.56,0,0,0-2,4.58A6.41,6.41,0,0,0,392,334.21c.19-.16,1.07-.9,1.07-1.23a.22.22,0,0,0-.22-.22c-.36,0-1.37,1.78-4.06,1.78-3.31,0-5.32-2.66-5.32-5.73,0-.9.28-.85,1.13-.85Z" transform="translate(-287.1 -261.32)"/><path class="cls-3" d="M395.18,332.1c0-.22.06-.6.36-.6,1,0-.14,3.75,3.59,3.75,1.62,0,3.34-.93,3.34-2.68,0-1.59-1.31-2.19-2.63-2.63-1.7-.55-4.19-1.24-4.19-3.46a3.13,3.13,0,0,1,1.45-2.55,5.45,5.45,0,0,1,3.24-.9,9.63,9.63,0,0,1,2.82.47c.46.21.3.82.3,1.23,0,.16.19,1.34-.27,1.34-.69,0-.39-2.57-3.35-2.57-1.12,0-2.52.76-2.52,2,0,3.21,6.85,1.76,6.85,6.22,0,2.64-2.87,4-5.21,4a9.31,9.31,0,0,1-3.47-.82c-.44-.2-.39-.55-.39-1Z" transform="translate(-287.1 -261.32)"/><path class="cls-3" d="M417.08,321.33c0-1.72.14-2.24-1.78-2.24-.25,0-.68,0-.68-.36s.19-.39.46-.39c1,0,2,.11,3.07.11s2.08-.11,3.13-.11c.24,0,.46.09.46.39s-.46.36-.71.36c-1.92,0-1.78.52-1.78,2.24v11.24c0,1.75-.11,2.24,1.78,2.27.25,0,.71,0,.71.33s-.22.36-.46.36c-1,0-2-.11-3.07-.11s-2.09.11-3.13.11c-.25,0-.46-.06-.46-.36s.43-.33.68-.33c1.92,0,1.78-.55,1.78-2.27Z" transform="translate(-287.1 -261.32)"/><path class="cls-3" d="M425.28,327.47c0-.38,0-1.45-.28-1.76s-.58-.21-.79-.21h-.36c-.16,0-.33-.06-.33-.22,0-.33.38-.39.63-.47a6,6,0,0,0,2.27-1.42c.14-.14.28-.36.5-.36s.25.25.25.44v1.81c.46,0,2-2.25,4.49-2.25a3.86,3.86,0,0,1,3.23,1.48,5.71,5.71,0,0,1,.83,3.78v4.33c0,1.18-.25,2.11,1.23,2.25.27,0,.77,0,.77.36s-.14.3-.33.3c-.88,0-1.76-.11-2.58-.11s-1.75.11-2.6.11c-.19,0-.39-.06-.39-.28,0-.41.47-.35.77-.38,1.48-.14,1.23-1.07,1.23-2.25v-4.35a5.12,5.12,0,0,0-.49-2.72,3,3,0,0,0-2.57-1.23A3.77,3.77,0,0,0,428,325.5a3,3,0,0,0-.87,2.52v4.6c0,1.18-.25,2.11,1.23,2.25.27,0,.77,0,.77.36s-.14.3-.33.3c-.88,0-1.76-.11-2.58-.11s-1.75.11-2.6.11c-.2,0-.38-.06-.38-.28,0-.41.46-.35.76-.38,1.48-.14,1.24-1.07,1.24-2.25Z" transform="translate(-287.1 -261.32)"/><path class="cls-3" d="M439,332.1c0-.22.06-.6.36-.6,1,0-.14,3.75,3.59,3.75,1.62,0,3.34-.93,3.34-2.68,0-1.59-1.31-2.19-2.63-2.63-1.7-.55-4.19-1.24-4.19-3.46a3.13,3.13,0,0,1,1.45-2.55,5.44,5.44,0,0,1,3.23-.9,9.64,9.64,0,0,1,2.83.47c.46.21.3.82.3,1.23,0,.16.19,1.34-.28,1.34-.68,0-.38-2.57-3.34-2.57-1.12,0-2.52.76-2.52,2,0,3.21,6.85,1.76,6.85,6.22,0,2.64-2.88,4-5.21,4a9.41,9.41,0,0,1-3.48-.82c-.43-.2-.38-.55-.38-1Z" transform="translate(-287.1 -261.32)"/><path class="cls-3" d="M452.76,331.5c0,1.18,0,3.21,1.62,3.21,1,0,1.75-1,2-1a.2.2,0,0,1,.19.19c0,.27-.35.63-.54.77a3.82,3.82,0,0,1-2.55,1,2.57,2.57,0,0,1-2-.85c-.71-.91-.6-2.31-.6-3.4v-7c0-.58-.16-.5-.68-.5-.14,0-.85.11-.85-.22s.19-.3.33-.41a6.34,6.34,0,0,0,2.6-2.77c.05-.11.14-.24.27-.24s.22.16.22.32v1.95c0,.36.06.52.44.55h2.72c.24,0,.24.16.24.38,0,.58-.22.44-.85.44h-1.53c-.63,0-1-.16-1,.61Z" transform="translate(-287.1 -261.32)"/><path class="cls-3" d="M461.37,332.62c0,1.18-.25,2.11,1.23,2.25.28,0,.77,0,.77.36s-.14.3-.33.3c-.88,0-1.75-.11-2.58-.11s-1.75.11-2.6.11c-.19,0-.38-.06-.38-.28,0-.41.46-.35.76-.38,1.48-.14,1.24-1.07,1.24-2.25v-5.15c0-.38,0-1.45-.28-1.76-.16-.19-.57-.21-.79-.21h-.36c-.16,0-.33-.06-.33-.22,0-.33.39-.39.63-.47a6.14,6.14,0,0,0,2.28-1.42c.14-.14.27-.36.49-.36s.25.25.25.44Zm-2.14-13.29a1.29,1.29,0,0,1,1.23-1.37,1.24,1.24,0,0,1,1.16,1.32,1.22,1.22,0,0,1-1.21,1.36A1.2,1.2,0,0,1,459.23,319.33Z" transform="translate(-287.1 -261.32)"/><path class="cls-3" d="M467.56,331.5c0,1.18,0,3.21,1.62,3.21,1,0,1.75-1,2-1a.2.2,0,0,1,.19.19c0,.27-.35.63-.55.77a3.77,3.77,0,0,1-2.54,1,2.54,2.54,0,0,1-2-.85c-.72-.91-.61-2.31-.61-3.4v-7c0-.58-.16-.5-.68-.5-.14,0-.85.11-.85-.22s.19-.3.32-.41a6.3,6.3,0,0,0,2.61-2.77c.05-.11.14-.24.27-.24s.22.16.22.32v1.95c0,.36.06.52.44.55h2.71c.25,0,.25.16.25.38,0,.58-.22.44-.85.44h-1.53c-.63,0-1-.16-1,.61Z" transform="translate(-287.1 -261.32)"/><path class="cls-3" d="M484.14,332.13c0,1.07-.22,1.92,1.1,1.81l.36,0c.16,0,.35,0,.35.22s-.41.3-.57.36a8.2,8.2,0,0,0-2.75,1.17c-.05,0-.21.17-.3.17s-.13-.08-.13-.22V335c0-.14.13-1.12-.22-1.12s-1.7,1.92-4.2,1.92a3.91,3.91,0,0,1-3.23-1.59c-.88-1.13-.82-2.52-.82-3.87v-4.16c0-1.15.27-2.2-1.24-2.2-.24,0-.74,0-.74-.38,0-.22.14-.16.36-.16h3.07c.58,0,.44.57.44,1v5.91a6.5,6.5,0,0,0,.49,3.07,3.17,3.17,0,0,0,2.74,1.26,3.77,3.77,0,0,0,2.94-1.23c.57-.63.46-1.26.46-2v-5.23c0-1.15.28-2.2-1.2-2.2-.25,0-.77,0-.77-.35s.16-.19.38-.19h3.18c.44,0,.3.38.3.68Z" transform="translate(-287.1 -261.32)"/><path class="cls-3" d="M490.58,331.5c0,1.18,0,3.21,1.62,3.21,1,0,1.75-1,2-1a.21.21,0,0,1,.2.19c0,.27-.36.63-.55.77a3.82,3.82,0,0,1-2.55,1,2.54,2.54,0,0,1-2-.85c-.72-.91-.61-2.31-.61-3.4v-7c0-.58-.16-.5-.68-.5-.14,0-.85.11-.85-.22s.19-.3.33-.41a6.34,6.34,0,0,0,2.6-2.77c.05-.11.13-.24.27-.24s.22.16.22.32v1.95c0,.36.06.52.44.55h2.71c.25,0,.25.16.25.38,0,.58-.22.44-.85.44H491.6c-.63,0-1-.16-1,.61Z" transform="translate(-287.1 -261.32)"/><path class="cls-3" d="M498.62,327.31c-.31,0-.94.08-.94-.36a3.57,3.57,0,0,1,.69-1.59,4.4,4.4,0,0,1,3.56-1.84,3.19,3.19,0,0,1,2.38.86A2.54,2.54,0,0,1,505,326c0,.66-.41,1-1,1.1a17.52,17.52,0,0,1-3.18.22Zm8.27.65c.28,0,.33-.25.33-.46a5,5,0,0,0-1-2.77,5,5,0,0,0-3.95-1.7,7.32,7.32,0,0,0-4.93,1.84,5.56,5.56,0,0,0-2,4.58A6.41,6.41,0,0,0,506,334.21c.19-.16,1.06-.9,1.06-1.23a.21.21,0,0,0-.21-.22c-.36,0-1.38,1.78-4.06,1.78-3.32,0-5.32-2.66-5.32-5.73,0-.9.27-.85,1.12-.85Z" transform="translate(-287.1 -261.32)"/><path class="cls-1" d="M387.06,345.82c.53-.84,1.72-2.83,2.82-2.83.53,0,.7.49.7.95a3.22,3.22,0,0,1-.19,1l-.37,1.21a12.6,12.6,0,0,1,1.34-2.09,2.88,2.88,0,0,1,1.77-1.08.67.67,0,0,1,.75.71,3.9,3.9,0,0,1-.26,1.16l-.89,2.45a1,1,0,0,0-.1.42.2.2,0,0,0,.19.22c.38,0,1-.93,1.23-1.22,0,0,.06-.1.1-.1a.09.09,0,0,1,.1.08c0,.22-.46.78-.6.92-.29.35-.92.94-1.42.94s-.46-.22-.46-.54a5,5,0,0,1,.33-1.28l.61-1.71a4.15,4.15,0,0,0,.32-1.13c0-.29-.14-.39-.4-.39-.59,0-1.37,1-1.67,1.47a13.51,13.51,0,0,0-1.5,3c-.1.37-.07.45-.49.45-.08,0-.4,0-.4-.14s.09-.29.1-.34l1-3.23a2.88,2.88,0,0,0,.17-.76c0-.23-.1-.43-.35-.43-.47,0-1.21.92-1.44,1.22a12,12,0,0,0-1.69,3.21c-.14.45-.08.47-.5.47-.12,0-.38,0-.38-.15a1.86,1.86,0,0,1,.07-.34l1.06-3.43a2.49,2.49,0,0,0,.13-.66c0-.08,0-.21-.14-.21-.28,0-.88.7-1,.91s-.15.24-.24.24a.09.09,0,0,1-.09-.09,3.27,3.27,0,0,1,.6-.81c.32-.32.94-.9,1.42-.9.3,0,.32.33.32.55a3.53,3.53,0,0,1-.17,1l-.49,1.58Z" transform="translate(-287.1 -261.32)"/><path class="cls-1" d="M400.1,343.83a6.64,6.64,0,0,1-1.3,2.31c-.42.53-1.48,1.8-2.2,1.8-.38,0-.55-.39-.55-.73a5.23,5.23,0,0,1,1.08-2.51,3.28,3.28,0,0,1,2.21-1.49C399.75,343.21,400.1,343.39,400.1,343.83Zm.18-.43a1,1,0,0,0-.91-.41,4.28,4.28,0,0,0-2.88,1.43,4.82,4.82,0,0,0-1.36,2.92c0,.59.27,1.23.93,1.23,1.41,0,3-2.27,3.66-3.36l-.72,2.35a2.41,2.41,0,0,0-.13.67.3.3,0,0,0,.32.34,2.58,2.58,0,0,0,1.41-.88,3,3,0,0,0,.63-1,.09.09,0,0,0-.08-.09c-.09,0-.17.15-.2.21-.15.23-.71,1-1,1-.1,0-.12-.09-.12-.18a1.59,1.59,0,0,1,.09-.39l1.23-4a1.55,1.55,0,0,0,.06-.23c0-.17-.33-.11-.41-.11-.39,0-.38.06-.49.42Z" transform="translate(-287.1 -261.32)"/><path class="cls-1" d="M403.75,346.1c.43-.81,1.7-2.63,2.7-2.63a.51.51,0,0,1,.52.55,1.92,1.92,0,0,1-.88,1.41,3.45,3.45,0,0,1-2.06.67Zm-.11.21c.37-.07.54.31.67.58.33.79.7,1.68,1.7,1.68a1.14,1.14,0,0,0,1.21-1.07.58.58,0,0,0-.55-.65.31.31,0,0,0-.3.32c0,.42.51.25.51.65a.49.49,0,0,1-.51.45c-.52,0-.79-.69-1-1.08a1.6,1.6,0,0,0-.79-.95,5.77,5.77,0,0,0,2.08-.58A2,2,0,0,0,407.8,344a1,1,0,0,0-1-1c-1.16,0-2.55,1.78-3.08,2.72l1.57-5.12a2.12,2.12,0,0,0,.1-.36.08.08,0,0,0-.09-.08l-.13,0a2.28,2.28,0,0,1-1.35.3c-.1,0-.27,0-.27.12s.12.12.21.12.52,0,.52.32a2.62,2.62,0,0,1-.15.66L402.21,348a1,1,0,0,0-.08.29c0,.16.31.12.4.12.46,0,.4-.1.53-.55Z" transform="translate(-287.1 -261.32)"/><path class="cls-1" d="M409.28,346c.28-1.11,1.17-2.78,2.49-2.78a.63.63,0,0,1,.7.68,1.86,1.86,0,0,1-.41,1.1C411.52,345.71,410.15,345.92,409.28,346Zm0,.24.15,0c1.27-.14,3.91-.36,3.91-2.08a1.25,1.25,0,0,0-1.38-1.13,4,4,0,0,0-3.63,3.71,1.72,1.72,0,0,0,1.71,1.87,3.22,3.22,0,0,0,2.24-1.15c.06-.08.31-.36.31-.47s0-.08-.08-.08-.1.05-.14.09a2.55,2.55,0,0,1-1.86,1.08,1.21,1.21,0,0,1-1.26-1.36v-.27Z" transform="translate(-287.1 -261.32)"/><path class="cls-1" d="M418.22,346.41v.27a1.21,1.21,0,0,0,1.26,1.36,2.57,2.57,0,0,0,1.87-1.08.18.18,0,0,1,.13-.09c.06,0,.08,0,.08.08s-.25.39-.31.47a3.2,3.2,0,0,1-2.24,1.15,1.72,1.72,0,0,1-1.71-1.87,4,4,0,0,1,3.63-3.71,1.24,1.24,0,0,1,1.38,1.13c0,1.72-2.64,1.94-3.91,2.08l-.15,0Zm2.85-1.42a1.86,1.86,0,0,0,.41-1.1.63.63,0,0,0-.7-.68c-1.32,0-2.21,1.67-2.48,2.78C419.16,345.92,420.53,345.71,421.07,345Z" transform="translate(-287.1 -261.32)"/><path class="cls-1" d="M424.12,346.66a2.62,2.62,0,0,0-.24.9.6.6,0,0,0,.6.62c1.37,0,3.08-2.45,3.08-3.72a.78.78,0,0,0-.14-.49,1,1,0,0,1-.23-.58c0-.21.16-.52.41-.52s.48.57.48.85c0,1.77-2,4.85-3.94,4.85-.69,0-1.08-.29-1.08-1a4.19,4.19,0,0,1,.33-1.17l.86-2.11a2.43,2.43,0,0,0,.17-.52.16.16,0,0,0-.16-.18c-.3,0-.94.75-1.09,1,0,0-.09.11-.15.11s-.07-.05-.07-.09.12-.23.16-.29a3.51,3.51,0,0,1,.85-.87,1.92,1.92,0,0,1,.93-.42.37.37,0,0,1,.41.42,2.54,2.54,0,0,1-.22.86Z" transform="translate(-287.1 -261.32)"/><path class="cls-1" d="M429.51,346c.27-1.11,1.16-2.78,2.48-2.78a.63.63,0,0,1,.7.68,1.8,1.8,0,0,1-.41,1.1C431.74,345.71,430.38,345.92,429.51,346Zm-.05.24.16,0c1.26-.14,3.9-.36,3.9-2.08a1.24,1.24,0,0,0-1.38-1.13,4,4,0,0,0-3.63,3.71,1.72,1.72,0,0,0,1.71,1.87,3.2,3.2,0,0,0,2.24-1.15c.07-.08.32-.36.32-.47s0-.08-.09-.08-.09.05-.13.09A2.57,2.57,0,0,1,430.7,348a1.21,1.21,0,0,1-1.26-1.36v-.27Z" transform="translate(-287.1 -261.32)"/><path class="cls-1" d="M435.55,344.54a2.73,2.73,0,0,0,.14-.69c0-.1,0-.25-.15-.25s-.74.6-.88.8l-.11.15c0,.05-.1.18-.17.18a.08.08,0,0,1-.09-.08c0-.19.49-.76.61-.89a2.12,2.12,0,0,1,1.19-.77c.35,0,.44.44.44.7a2.72,2.72,0,0,1-.17.8l-.51,1.68c.44-.79,1.6-3.18,2.62-3.18a.55.55,0,0,1,.59.59c0,.32-.18.7-.54.7-.59,0-.26-.58-.58-.58s-1.05,1.07-1.18,1.28a15.39,15.39,0,0,0-1.43,2.91c-.13.44-.1.54-.57.54-.11,0-.34,0-.34-.16a1.59,1.59,0,0,1,.09-.33Z" transform="translate(-287.1 -261.32)"/><path class="cls-1" d="M442.83,346.59a3.87,3.87,0,0,0,.89-2c0-.47-.3-.67-.3-1a.5.5,0,0,1,.45-.54c.38,0,.51.49.51.79,0,1.45-1.82,3.61-2.75,4.7l-.59.72c-.63.75-1.63,1.94-2.69,1.94-.35,0-.89-.23-.89-.65a.4.4,0,0,1,.41-.39c.48,0,.48.64,1,.64s1.22-.77,1.47-1.24a2.83,2.83,0,0,0,.34-1l.09-1.54c0-.44,0-3.38-.57-3.38-.34,0-.75.68-.87.93,0,.07-.12.31-.23.31s-.06-.06-.06-.1a2.67,2.67,0,0,1,.45-.89c.25-.33.65-.8,1.1-.8s.73.9.8,1.31a13.32,13.32,0,0,1,.17,2.36L441.5,348v.24Z" transform="translate(-287.1 -261.32)"/><path class="cls-1" d="M453.25,343.78a6.81,6.81,0,0,1-1.2,2.31c-.44.58-1.46,1.89-2.28,1.89-.44,0-.55-.41-.55-.78a4.92,4.92,0,0,1,1-2.59,3.46,3.46,0,0,1,2.28-1.41A.64.64,0,0,1,453.25,343.78Zm.15-.4a.79.79,0,0,0-.76-.39,4.73,4.73,0,0,0-4.31,4.22c0,.63.29,1.36,1,1.36,1.36,0,2.68-2.08,3.4-3.07l-.48,1.56a4.16,4.16,0,0,0-.21,1.05c0,.27.07.46.37.46.5,0,1.17-.69,1.46-1a2.42,2.42,0,0,0,.49-.85.08.08,0,0,0-.07-.08c-.08,0-.13.09-.17.15-.15.25-.75,1.08-1,1.08-.12,0-.16-.11-.16-.2a1.48,1.48,0,0,1,.12-.47l2-6.63a2.46,2.46,0,0,0,.07-.29.1.1,0,0,0-.1-.1.19.19,0,0,0-.1.05,2.63,2.63,0,0,1-1.37.45c-.12,0-.36,0-.36.15a.13.13,0,0,0,.15.13h.19c.2,0,.46,0,.46.3a2,2,0,0,1-.12.48Z" transform="translate(-287.1 -261.32)"/><path class="cls-1" d="M456.87,344.54a2.73,2.73,0,0,0,.14-.69c0-.1,0-.25-.15-.25-.28,0-.74.6-.88.8l-.11.15c0,.05-.11.18-.18.18a.08.08,0,0,1-.08-.08c0-.19.49-.76.6-.89a2.15,2.15,0,0,1,1.19-.77c.36,0,.44.44.44.7a2.71,2.71,0,0,1-.16.8l-.51,1.68c.43-.79,1.6-3.18,2.62-3.18a.55.55,0,0,1,.59.59c0,.32-.19.7-.54.7-.6,0-.26-.58-.58-.58s-1.05,1.07-1.18,1.28a16.07,16.07,0,0,0-1.44,2.91c-.13.44-.09.54-.57.54-.11,0-.33,0-.33-.16a2.66,2.66,0,0,1,.08-.33Z" transform="translate(-287.1 -261.32)"/><path class="cls-1" d="M465.18,344.77c0,1.28-.86,3.54-2.39,3.54-1,0-1.22-.85-1.22-1.67,0-1.33.82-3.42,2.41-3.42C464.91,343.22,465.18,344,465.18,344.77Zm.82.53a2.2,2.2,0,0,0-2.09-2.31,3.43,3.43,0,0,0-3.2,3.26,2.15,2.15,0,0,0,2,2.32,3.58,3.58,0,0,0,2.33-1.08A3.2,3.2,0,0,0,466,345.3Z" transform="translate(-287.1 -261.32)"/><path class="cls-1" d="M469,343.47a4.76,4.76,0,0,1,1.13-.18c.86,0,1.44.4,1.44,1.31a5.08,5.08,0,0,1-.74,2.29,2.28,2.28,0,0,1-1.93,1.38c-.48,0-1.06-.18-1.06-.73a4.15,4.15,0,0,1,.18-.85ZM467.6,348a1.77,1.77,0,0,0,1.2.53,3.52,3.52,0,0,0,2.58-1.27,4.31,4.31,0,0,0,1.07-2.59c0-1.25-1-1.72-2.13-1.72a6.06,6.06,0,0,0-1.21.13l.25-.83a1,1,0,0,0,.06-.23c0-.2-.24-.14-.38-.14-.37,0-.36,0-.46.37l-.32,1-.92.39c-.09,0-.32.12-.32.26a.12.12,0,0,0,.12.11c.09,0,.85-.36,1-.39l-1.76,5.75a4.27,4.27,0,0,1-.43,1.1.94.94,0,0,1-.58.24c-.13,0-.5,0-.5.22s.05.13.14.13l.19,0,.63-.06.83-.05,1,.05h.17c.09,0,.25,0,.25-.15s-.24-.14-.35-.16c-.34,0-.76-.06-.76-.51a3.38,3.38,0,0,1,.17-.66Z" transform="translate(-287.1 -261.32)"/><path class="cls-1" d="M481.26,344c-.75,0-.64-.7-1.19-.7a2.25,2.25,0,0,0-1.36.8,4.17,4.17,0,0,0-1,2.51c0,.77.38,1.42,1.22,1.42,1.33,0,2.05-1.29,2.25-1.29a.08.08,0,0,1,.07.07c0,.18-.39.61-.5.72a3.12,3.12,0,0,1-2.11,1.09,1.87,1.87,0,0,1-1.84-2,3.6,3.6,0,0,1,1.14-2.45A3.94,3.94,0,0,1,480.4,343c.35,0,1.3.1,1.3.6A.4.4,0,0,1,481.26,344Z" transform="translate(-287.1 -261.32)"/><path class="cls-1" d="M487,344.77c0,1.28-.85,3.54-2.38,3.54-1,0-1.23-.85-1.23-1.67,0-1.33.82-3.42,2.41-3.42C486.71,343.22,487,344,487,344.77Zm.82.53a2.2,2.2,0,0,0-2.09-2.31,3.42,3.42,0,0,0-3.19,3.26,2.15,2.15,0,0,0,2,2.32,3.56,3.56,0,0,0,2.33-1.08A3.2,3.2,0,0,0,487.8,345.3Z" transform="translate(-287.1 -261.32)"/><path class="cls-1" d="M493.28,345.52a9.3,9.3,0,0,1-1.62,2,3.6,3.6,0,0,1-2,1.07c-.38,0-.51-.26-.51-.62a3.21,3.21,0,0,1,.23-1l.92-2.7a1.86,1.86,0,0,0,.13-.46c0-.11,0-.21-.17-.21-.3,0-.84.71-1,.93-.05.07-.16.27-.26.27s-.06,0-.06-.08a3.27,3.27,0,0,1,.64-1,2.49,2.49,0,0,1,1.31-.78c.29,0,.37.27.37.52a2.66,2.66,0,0,1-.17.78l-.95,2.84a2.35,2.35,0,0,0-.13.57.29.29,0,0,0,.32.33c.56,0,1.54-1,1.87-1.36a8.43,8.43,0,0,0,1.77-3.19c.15-.44.05-.49.5-.49.1,0,.41-.06.41.11a.89.89,0,0,1-.08.29l-1.15,3.76a3.16,3.16,0,0,0-.1.5c0,.11.05.24.19.24.4,0,1.05-.85,1.24-1.18,0,0,.08-.12.15-.12a.08.08,0,0,1,.08.08,3.3,3.3,0,0,1-.61.91,2.75,2.75,0,0,1-1.62,1c-.25,0-.33-.24-.33-.44a4.1,4.1,0,0,1,.22-1l.52-1.69Z" transform="translate(-287.1 -261.32)"/><path class="cls-1" d="M501.21,347.06a3.18,3.18,0,0,0-.18.6.21.21,0,0,0,.23.24c.38,0,1-.83,1.25-1.13,0,0,.07-.11.14-.11a.09.09,0,0,1,.08.08,3,3,0,0,1-.53.8c-.31.34-1,1-1.51,1s-.51-.19-.51-.54a4,4,0,0,1,.32-1.27l.84-2.24a2.09,2.09,0,0,0,.17-.64.38.38,0,0,0-.42-.42c-.63,0-1.38.88-1.74,1.31a12.28,12.28,0,0,0-1.83,3.25c-.1.35-.11.41-.49.41-.12,0-.37.05-.37-.15a1.54,1.54,0,0,1,.07-.27l1.06-3.46a2.44,2.44,0,0,0,.14-.65c0-.15-.06-.28-.23-.28s-1,.79-1.11,1c0,.06-.06.13-.13.13s-.09,0-.09-.08a2.72,2.72,0,0,1,.51-.77c.29-.36.91-.95,1.41-.95s.49.23.49.58a3.7,3.7,0,0,1-.21,1l-.51,1.63,0,0c.65-1.19,2-3.28,3.57-3.28a.67.67,0,0,1,.74.66,2.67,2.67,0,0,1-.23.87Z" transform="translate(-287.1 -261.32)"/><path class="cls-1" d="M504.86,347.06a2.28,2.28,0,0,0-.15.57c0,.12.05.25.19.25.29,0,.73-.57.89-.79s.17-.24.22-.33.07-.14.13-.14a.09.09,0,0,1,.09.09,2,2,0,0,1-.35.62c-.3.4-1,1.24-1.58,1.24-.33,0-.44-.36-.44-.63a3.87,3.87,0,0,1,.22-1l1.06-3.45h-.68s-.27,0-.27-.09.14-.22.32-.22h.71l.4-1.27c.07-.16.27-.13.41-.13s.38-.05.38.11a1.08,1.08,0,0,1-.07.31l-.31,1h.89s.26,0,.26.08a.41.41,0,0,1,0,.16c0,.08-.21.07-.28.07H506Z" transform="translate(-287.1 -261.32)"/><path class="cls-3" d="M296.17,309.46c0,1.76-.11,2.28,1.79,2.28.24,0,.71,0,.71.33s-.22.36-.47.36c-1,0-2-.11-3.07-.11s-2.08.11-3.12.11c-.25,0-.47-.06-.47-.36s.44-.33.69-.33c1.92,0,1.78-.55,1.78-2.28V296.78c0-1-.36-.8-1.21-.8-2.49,0-3.5.25-4.82,2.44-.11.19-.33.66-.6.66s-.28-.14-.28-.33a2.2,2.2,0,0,1,.17-.66l1.07-3.56c.05-.19.11-.39.35-.39s.25.14.25.31,0,.41.22.57a2.14,2.14,0,0,0,1.37.22h10c.71,0,1.4.14,1.67-.63.08-.22.14-.47.41-.47s.25.8.25,1l-.17,3.35c0,.22,0,.46-.33.46s-.24-.22-.3-.38a6,6,0,0,0-.79-1.86A2.53,2.53,0,0,0,299,296h-1.59c-1.24,0-1.24-.05-1.24,1.34Z" transform="translate(-287.1 -261.32)"/><path class="cls-3" d="M306.18,304.2c-.3,0-.93.09-.93-.35a3.67,3.67,0,0,1,.68-1.59,4.43,4.43,0,0,1,3.57-1.84,3.23,3.23,0,0,1,2.38.85,2.53,2.53,0,0,1,.71,1.62c0,.66-.41,1-1,1.09a16.72,16.72,0,0,1-3.18.22Zm8.28.66c.27,0,.33-.24.33-.47a4.92,4.92,0,0,0-1-2.76,5,5,0,0,0-3.95-1.7,7.32,7.32,0,0,0-4.93,1.84,5.53,5.53,0,0,0-2,4.57,6.42,6.42,0,0,0,10.58,4.77c.19-.16,1.07-.9,1.07-1.23a.22.22,0,0,0-.22-.22c-.35,0-1.37,1.78-4,1.78-3.32,0-5.32-2.66-5.32-5.73,0-.9.27-.85,1.12-.85Z" transform="translate(-287.1 -261.32)"/><path class="cls-3" d="M320.57,309.28a4.7,4.7,0,0,0-1.12,1.94c0,.55.71.55,1.12.55s.71,0,.71.38-.25.28-.44.28c-.77,0-1.53-.11-2.3-.11s-1.64.11-2.47.11c-.19,0-.32-.06-.32-.25,0-.36.43-.41.68-.41,1.26,0,2.28-1.23,3-2.17l1.89-2.35c.11-.17.49-.58.49-.83a.91.91,0,0,0-.25-.46l-2.71-3.54c-.77-1-.93-1.59-2.27-1.59-.25,0-.66,0-.66-.24s.08-.3.19-.3h5.92c.22,0,.44,0,.44.24s-.28.3-.52.3c-.39,0-1.29-.05-1.29.52,0,.39.52,1,.74,1.29l1.72,2.33,1.51-1.89c.25-.3.93-1.15.93-1.56s-.6-.69-1-.69c-.25,0-.69,0-.69-.27s.17-.27.39-.27h5c.22,0,.47,0,.47.3s-.5.24-.74.24c-1.7,0-2.23.77-3.27,2.06l-1.39,1.7c-.2.25-.58.6-.58.93s.36.66.52.85l2.82,3.78a6.77,6.77,0,0,0,1.32,1.45,1.57,1.57,0,0,0,.9.17c.2,0,.64.05.64.35s-.28.31-.53.31c-1,0-2.13-.11-3.18-.11-.82,0-1.64.11-2.43.11-.2,0-.36-.09-.36-.31s.36-.35.6-.35,1.37.08,1.37-.49c0-.36-.52-1-.74-1.26l-2.3-3Z" transform="translate(-287.1 -261.32)"/><path class="cls-3" d="M337.67,305.93a1.21,1.21,0,0,1,.3-.11c.28,0,.19.66.19.77v1.64a2.39,2.39,0,0,1-.68,2.06,3.67,3.67,0,0,1-2.55,1.09,1.67,1.67,0,0,1-1.89-1.61c0-1.32,1.07-2,2.14-2.58Zm-2.63.71c-1.51.74-4.06,1.9-4.06,3.84a2.36,2.36,0,0,0,2.58,2.16c2.38,0,4.16-2.08,4.41-2.08s.52,1.92,1.86,1.92a3.56,3.56,0,0,0,1.95-.8c.19-.16.66-.54.66-.84a.21.21,0,0,0-.19-.22c-.25,0-.55.68-1.24.68-1,0-1-1.59-1-2.19v-6.47c0-.74.12-1.45-.54-2a3.81,3.81,0,0,0-2.5-.71,7.63,7.63,0,0,0-4.9,1.89,3,3,0,0,0-1.15,1.95c0,.27.13.32.35.32a3.43,3.43,0,0,0,1.18-.35c.44-.19.57-.58.77-1a3.23,3.23,0,0,1,3.15-2.3c1.7,0,1.75,1.12,1.75,2.47v1.2c0,1,0,1.07-1,1.54Z" transform="translate(-287.1 -261.32)"/><path class="cls-3" d="M344.17,309c0-.22.05-.6.35-.6,1,0-.14,3.75,3.59,3.75,1.62,0,3.35-.93,3.35-2.69,0-1.58-1.32-2.19-2.64-2.62-1.7-.55-4.19-1.24-4.19-3.46a3.13,3.13,0,0,1,1.45-2.55,5.47,5.47,0,0,1,3.24-.9,10,10,0,0,1,2.82.46c.47.22.3.82.3,1.24,0,.16.19,1.34-.27,1.34-.69,0-.39-2.58-3.35-2.58-1.12,0-2.52.77-2.52,2,0,3.21,6.85,1.76,6.85,6.22,0,2.64-2.87,4-5.2,4a9.13,9.13,0,0,1-3.48-.82c-.44-.19-.39-.54-.39-1Z" transform="translate(-287.1 -261.32)"/><path class="cls-3" d="M372.83,312c-.08.22-.19.6-.49.6s-.38-.41-.47-.6l-6.47-13.92a9.73,9.73,0,0,0-.87-1.7,1.43,1.43,0,0,0-1.15-.44c-.31,0-.66,0-.66-.41,0-.22.19-.33.44-.33.87,0,1.75.11,2.68.11s1.76-.11,2.63-.11c.25,0,.5.06.5.38s-.39.36-.66.36-1.07,0-1.07.61a3.82,3.82,0,0,0,.44,1.28l5.45,11.76,2-4.27a3,3,0,0,0,.33-1.07,5.44,5.44,0,0,0-.54-1.59l-2.28-4.91c-.33-.68-.68-1.81-1.62-1.81-.33,0-.82.11-.82-.36a.38.38,0,0,1,.41-.38c.88,0,1.81.11,2.69.11s1.75-.11,2.63-.11a.45.45,0,0,1,.46.41c0,.39-.6.33-.85.33-.41,0-.9.14-.9.63a4.7,4.7,0,0,0,.44,1.29l1.75,3.84,1.81-3.87a4,4,0,0,0,.47-1.34c0-.41-.47-.55-.8-.55s-.76.06-.76-.33.24-.41.51-.41c.66,0,1.32.11,2,.11s1.32-.11,2-.11a.35.35,0,0,1,.36.36c0,.44-.52.38-.8.38-1.34,0-1.78,1.23-2.24,2.28l-1.27,2.63a5.56,5.56,0,0,0-.62,1.75,4.58,4.58,0,0,0,.52,1.48l2.33,5.26L385,298.12a4.6,4.6,0,0,0,.41-1.42c0-.77-.8-.72-1.37-.72-.28,0-.47-.05-.47-.38s.22-.36.47-.36c.65,0,1.37.11,2,.11s1.32-.11,2-.11a.43.43,0,0,1,.46.41c0,.36-.46.33-.74.33a1.18,1.18,0,0,0-1,.41,6.55,6.55,0,0,0-1,1.87L380.07,312c-.09.19-.14.52-.41.52s-.53-.63-.63-.86l-3-6.52Z" transform="translate(-287.1 -261.32)"/><path class="cls-3" d="M393.56,305.93a1.21,1.21,0,0,1,.3-.11c.27,0,.19.66.19.77v1.64a2.41,2.41,0,0,1-.68,2.06,3.68,3.68,0,0,1-2.56,1.09,1.67,1.67,0,0,1-1.89-1.61c0-1.32,1.07-2,2.14-2.58Zm-2.64.71c-1.5.74-4.05,1.9-4.05,3.84a2.36,2.36,0,0,0,2.58,2.16c2.38,0,4.16-2.08,4.41-2.08s.52,1.92,1.86,1.92a3.59,3.59,0,0,0,1.95-.8c.19-.16.65-.54.65-.84a.21.21,0,0,0-.19-.22c-.25,0-.55.68-1.23.68-1,0-1-1.59-1-2.19v-6.47c0-.74.11-1.45-.55-2a3.79,3.79,0,0,0-2.49-.71,7.66,7.66,0,0,0-4.91,1.89,3,3,0,0,0-1.15,1.95c0,.27.14.32.36.32a3.43,3.43,0,0,0,1.18-.35c.43-.19.57-.58.76-1,.64-1.4,1.48-2.3,3.15-2.3s1.76,1.12,1.76,2.47v1.2c0,1,0,1.07-1,1.54Z" transform="translate(-287.1 -261.32)"/><path class="cls-3" d="M402.82,308.4c0,1.17,0,3.2,1.62,3.2,1,0,1.75-1,2-1a.21.21,0,0,1,.19.2c0,.27-.36.63-.55.76a3.8,3.8,0,0,1-2.55,1,2.54,2.54,0,0,1-2-.84c-.71-.91-.6-2.31-.6-3.4v-7c0-.57-.17-.49-.69-.49-.13,0-.85.11-.85-.22s.2-.3.33-.41a6.28,6.28,0,0,0,2.6-2.77c.06-.11.14-.25.28-.25s.22.17.22.33v1.95c0,.36.05.52.44.55H406c.25,0,.25.16.25.38,0,.58-.22.44-.85.44h-1.54c-.63,0-1-.16-1,.6Z" transform="translate(-287.1 -261.32)"/><path class="cls-3" d="M410.85,304.2c-.3,0-.93.09-.93-.35a3.67,3.67,0,0,1,.68-1.59,4.42,4.42,0,0,1,3.57-1.84,3.24,3.24,0,0,1,2.38.85,2.58,2.58,0,0,1,.71,1.62c0,.66-.41,1-1,1.09a16.72,16.72,0,0,1-3.18.22Zm8.28.66c.27,0,.33-.24.33-.47a4.93,4.93,0,0,0-1-2.76,5,5,0,0,0-3.94-1.7,7.3,7.3,0,0,0-4.93,1.84,5.53,5.53,0,0,0-2,4.57,6.42,6.42,0,0,0,10.58,4.77c.19-.16,1.07-.9,1.07-1.23a.22.22,0,0,0-.22-.22c-.36,0-1.37,1.78-4.06,1.78-3.31,0-5.31-2.66-5.31-5.73,0-.9.27-.85,1.12-.85Z" transform="translate(-287.1 -261.32)"/><path class="cls-3" d="M423,304.37c0-.39,0-1.45-.28-1.76a1.16,1.16,0,0,0-.79-.22h-.36c-.16,0-.33-.05-.33-.21,0-.33.39-.39.63-.47a6.14,6.14,0,0,0,2.28-1.42c.14-.14.27-.36.49-.36s.25.25.25.44v1.34c0,.11-.06.58.14.58s1.34-2.2,3.23-2.2a1.42,1.42,0,0,1,1.56,1.32,1.06,1.06,0,0,1-1.15,1.09c-.93,0-1-1-1.75-1s-1.07.58-1.4,1a4,4,0,0,0-.63,2.74v4.33c0,1.18-.25,2.11,1.23,2.25.28,0,.77,0,.77.35a.29.29,0,0,1-.33.31c-.88,0-1.75-.11-2.58-.11s-1.75.11-2.6.11c-.19,0-.38-.06-.38-.28,0-.41.46-.35.76-.38,1.48-.14,1.24-1.07,1.24-2.25Z" transform="translate(-287.1 -261.32)"/></svg>